<?xml version="1.0" encoding="UTF-8"?>
<svg version="1.1" xmlns="http://www.w3.org/2000/svg" width="168" height="300">
<path d="M0 0 C55.44 0 110.88 0 168 0 C168 99 168 198 168 300 C112.56 300 57.12 300 0 300 C0 201 0 102 0 0 Z " fill="#07090C" transform="translate(0,0)"/>
<path d="M0 0 C12.21 0 24.42 0 37 0 C35.92400524 4.30397906 35.03564216 4.98510341 31.6796875 7.5703125 C29.30222463 9.59392043 27.48165217 11.97615905 25.58984375 14.44921875 C24 16 24 16 21.63671875 16.89453125 C18.2440975 18.31691912 16.40059655 20.34310332 13.875 23 C11.29959908 25.69282042 9.10536365 27.92975757 6 30 C5.71853191 32.00564446 5.71853191 32.00564446 5.8125 34.25 C5.59534451 37.31978896 5.40412201 38.58336093 3.234375 40.8203125 C1.82455212 41.82950226 0.38326288 42.79659545 -1.08984375 43.7109375 C-3.28506723 45.01658247 -3.28506723 45.01658247 -5 48 C-6.32 48 -7.64 48 -9 48 C-9.66 49.32 -10.32 50.64 -11 52 C-10.34 52.33 -9.68 52.66 -9 53 C-13.55696203 55.91139241 -13.55696203 55.91139241 -16.1875 56.4375 C-16.785625 56.623125 -17.38375 56.80875 -18 57 C-18.28875 57.66 -18.5775 58.32 -18.875 59 C-19.24625 59.66 -19.6175 60.32 -20 61 C-23.58589143 61.99184231 -25.44712603 62.18429132 -29 61 C-31.00875442 61.27571139 -33.01178687 61.60235737 -35 62 C-35 62.66 -35 63.32 -35 64 C-38.465 64.495 -38.465 64.495 -42 65 C-42.495 66.485 -42.495 66.485 -43 68 C-42.34 68.66 -41.68 69.32 -41 70 C-41.495 71.485 -41.495 71.485 -42 73 C-42.185625 74.7325 -42.185625 74.7325 -42.375 76.5 C-42.98850915 79.93565126 -43.2754461 80.98619929 -46 83 C-44.27523089 83.95502158 -44.27523089 83.95502158 -42 84 C-39.33333333 81.66666667 -39.33333333 81.66666667 -37 79 C-36.34 78.67 -35.68 78.34 -35 78 C-34.67 78.99 -34.34 79.98 -34 81 C-37.11371882 84.38060901 -39.54087397 86.70920036 -44 88 C-44.99 88 -45.98 88 -47 88 C-47.66 86.68 -48.32 85.36 -49 84 C-49.0928125 85.175625 -49.0928125 85.175625 -49.1875 86.375 C-49.5896875 87.674375 -49.5896875 87.674375 -50 89 C-52.5 90.125 -52.5 90.125 -55 91 C-55.495 92.485 -55.495 92.485 -56 94 C-54.35 94 -52.7 94 -51 94 C-51 94.66 -51 95.32 -51 96 C-51.598125 96.103125 -52.19625 96.20625 -52.8125 96.3125 C-55.36316765 97.1141384 -56.36691995 97.90032564 -58 100 C-58.71447643 102.10332891 -58.71447643 102.10332891 -59 104 C-59.66 104 -60.32 104 -61 104 C-61 102.68 -61 101.36 -61 100 C-61.92232422 101.0828125 -61.92232422 101.0828125 -62.86328125 102.1875 C-63.67152344 103.115625 -64.47976562 104.04375 -65.3125 105 C-66.11300781 105.928125 -66.91351563 106.85625 -67.73828125 107.8125 C-70 110 -70 110 -73 110 C-73.33 110.33 -73.66 110.66 -74 111 C-74 111.94875 -74 112.8975 -74 113.875 C-74 117 -74 117 -75 120 C-75.66 120 -76.32 120 -77 120 C-76.67 121.32 -76.34 122.64 -76 124 C-79.609375 127.609375 -79.609375 127.609375 -82 129 C-85.75 128.75 -85.75 128.75 -89 128 C-89.66 128.33 -90.32 128.66 -91 129 C-91 127.02 -91 125.04 -91 123 C-93.94091587 123.18415432 -93.94091587 123.18415432 -97 124 C-98.09166275 125.93330603 -98.09166275 125.93330603 -99 128 C-101.375 129.125 -101.375 129.125 -104 130 C-105.34050052 130.65213539 -106.67661368 131.31379969 -108 132 C-108.99 130.68 -109.98 129.36 -111 128 C-113.97 128.99 -113.97 128.99 -117 130 C-117 128.68 -117 127.36 -117 126 C-115.02 125.505 -115.02 125.505 -113 125 C-113 124.34 -113 123.68 -113 123 C-111.68 123 -110.36 123 -109 123 C-109 122.34 -109 121.68 -109 121 C-107.3203125 119.4921875 -107.3203125 119.4921875 -105.125 117.875 C-104.40570313 117.33617188 -103.68640625 116.79734375 -102.9453125 116.2421875 C-101 115 -101 115 -99 115 C-98.690625 114.0409375 -98.690625 114.0409375 -98.375 113.0625 C-97 111 -97 111 -93.875 110.25 C-92.92625 110.1675 -91.9775 110.085 -91 110 C-91 110.66 -91 111.32 -91 112 C-89.865625 111.401875 -88.73125 110.80375 -87.5625 110.1875 C-86.92441406 109.85105469 -86.28632812 109.51460938 -85.62890625 109.16796875 C-83.67732013 108.00980201 -83.67732013 108.00980201 -83 105 C-82.93334624 103.60560336 -82.91461801 102.20830125 -82.9375 100.8125 C-82.958125 99.554375 -82.97875 98.29625 -83 97 C-82.01 96.67 -81.02 96.34 -80 96 C-78.77030122 92.48809191 -78.77030122 92.48809191 -78 89 C-75.525 88.505 -75.525 88.505 -73 88 C-72.9175 87.401875 -72.835 86.80375 -72.75 86.1875 C-71.79055618 83.38912218 -70.3258784 82.7444088 -68 81 C-67.855625 80.360625 -67.71125 79.72125 -67.5625 79.0625 C-66.69069434 75.86587925 -64.708851 74.74140421 -62 73 C-61.01 73.33 -60.02 73.66 -59 74 C-59 73.34 -59 72.68 -59 72 C-54.69767442 67.23255814 -54.69767442 67.23255814 -51 66 C-51 65.34 -51 64.68 -51 64 C-55.14093698 63.79029441 -55.14093698 63.79029441 -59 65 C-59 63.35 -59 61.7 -59 60 C-59.66 60 -60.32 60 -61 60 C-60.34 57.69 -59.68 55.38 -59 53 C-58.05125 52.9175 -57.1025 52.835 -56.125 52.75 C-55.09375 52.5025 -54.0625 52.255 -53 52 C-51.85790183 50.21771064 -51.85790183 50.21771064 -51 48 C-48.5625 45.25 -48.5625 45.25 -46 43 C-45.01 43 -44.02 43 -43 43 C-42.67 42.01 -42.34 41.02 -42 40 C-41.34 40.66 -40.68 41.32 -40 42 C-40.66 42.99 -41.32 43.98 -42 45 C-40.64567325 43.68799596 -39.31266518 42.35368596 -38 41 C-38 40.67 -38 40.34 -38 40 C-34.37 40 -30.74 40 -27 40 C-27 38.35 -27 36.7 -27 35 C-26.01 35 -25.02 35 -24 35 C-23.34 34.01 -22.68 33.02 -22 32 C-21.01 32 -20.02 32 -19 32 C-19 30.35 -19 28.7 -19 27 C-18.34 27 -17.68 27 -17 27 C-17.495 25.515 -17.495 25.515 -18 24 C-17.01 23.67 -16.02 23.34 -15 23 C-13.78130071 20.49552484 -13.78130071 20.49552484 -13 18 C-12.34 18 -11.68 18 -11 18 C-10.9175 17.278125 -10.835 16.55625 -10.75 15.8125 C-9.83672766 12.38772874 -8.45764212 10.52992571 -6 8 C-5.01 8 -4.02 8 -3 8 C-1.5268006 5.25002779 -0.77595125 3.10380501 0 0 Z " fill="#581F37" transform="translate(131,0)"/>
<path d="M0 0 C12.21 0 24.42 0 37 0 C35.92400524 4.30397906 35.03564216 4.98510341 31.6796875 7.5703125 C29.30222463 9.59392043 27.48165217 11.97615905 25.58984375 14.44921875 C24 16 24 16 21.63671875 16.89453125 C18.2440975 18.31691912 16.40059655 20.34310332 13.875 23 C11.29959908 25.69282042 9.10536365 27.92975757 6 30 C5.71853191 32.00564446 5.71853191 32.00564446 5.8125 34.25 C5.59534451 37.31978896 5.40412201 38.58336093 3.234375 40.8203125 C1.82455212 41.82950226 0.38326288 42.79659545 -1.08984375 43.7109375 C-3.28506723 45.01658247 -3.28506723 45.01658247 -5 48 C-6.32 48 -7.64 48 -9 48 C-9.61875 48.639375 -10.2375 49.27875 -10.875 49.9375 C-13.51893567 52.50367285 -15.39814072 52.67255825 -19 53 C-19.495 51.02 -19.495 51.02 -20 49 C-18.35 48.34 -16.7 47.68 -15 47 C-15 46.34 -15 45.68 -15 45 C-13.02 44.505 -13.02 44.505 -11 44 C-11 43.01 -11 42.02 -11 41 C-11.99 40.505 -11.99 40.505 -13 40 C-13 40.66 -13 41.32 -13 42 C-14.32 42 -15.64 42 -17 42 C-15.61583545 38.72833834 -13.61578209 36.39660242 -11.30859375 33.7265625 C-9.03582606 30.72786603 -7.58413239 27.40295106 -6 24 C-10.01232741 26.11761724 -12.22277079 28.4566386 -15 32 C-15.66 32 -16.32 32 -17 32 C-17 32.66 -17 33.32 -17 34 C-17.66 34 -18.32 34 -19 34 C-19 34.66 -19 35.32 -19 36 C-24.04821006 41.99474944 -30.21670168 45.22167017 -38 46 C-38.33 46.99 -38.66 47.98 -39 49 C-42.41270242 50.51675663 -45.44169126 49.72783588 -49 49 C-49 49.66 -49 50.32 -49 51 C-49.99 51 -50.98 51 -52 51 C-52.226875 51.7425 -52.45375 52.485 -52.6875 53.25 C-54.2589561 56.5425747 -55.99995716 57.97497109 -59 60 C-59.66 60 -60.32 60 -61 60 C-60.34 57.69 -59.68 55.38 -59 53 C-58.05125 52.9175 -57.1025 52.835 -56.125 52.75 C-55.09375 52.5025 -54.0625 52.255 -53 52 C-51.85790183 50.21771064 -51.85790183 50.21771064 -51 48 C-48.5625 45.25 -48.5625 45.25 -46 43 C-45.01 43 -44.02 43 -43 43 C-42.67 42.01 -42.34 41.02 -42 40 C-41.34 40.66 -40.68 41.32 -40 42 C-40.66 42.99 -41.32 43.98 -42 45 C-40.64567325 43.68799596 -39.31266518 42.35368596 -38 41 C-38 40.67 -38 40.34 -38 40 C-34.37 40 -30.74 40 -27 40 C-27 38.35 -27 36.7 -27 35 C-26.01 35 -25.02 35 -24 35 C-23.34 34.01 -22.68 33.02 -22 32 C-21.01 32 -20.02 32 -19 32 C-19 30.35 -19 28.7 -19 27 C-18.34 27 -17.68 27 -17 27 C-17.495 25.515 -17.495 25.515 -18 24 C-17.01 23.67 -16.02 23.34 -15 23 C-13.78130071 20.49552484 -13.78130071 20.49552484 -13 18 C-12.34 18 -11.68 18 -11 18 C-10.9175 17.278125 -10.835 16.55625 -10.75 15.8125 C-9.83672766 12.38772874 -8.45764212 10.52992571 -6 8 C-5.01 8 -4.02 8 -3 8 C-1.5268006 5.25002779 -0.77595125 3.10380501 0 0 Z " fill="#380F17" transform="translate(131,0)"/>
<path d="M0 0 C-1.28985303 6.8533155 -6.62165333 12.77966358 -11 18 C-9.68 18 -8.36 18 -7 18 C-7 17.34 -7 16.68 -7 16 C-6.01 16.33 -5.02 16.66 -4 17 C-4.495 18.485 -4.495 18.485 -5 20 C-7.0625 20.6875 -7.0625 20.6875 -9 21 C-9 21.66 -9 22.32 -9 23 C-9.66 23.45375 -10.32 23.9075 -11 24.375 C-11.66 24.91125 -12.32 25.4475 -13 26 C-13 27.32 -13 28.64 -13 30 C-16.08809695 31.76462683 -17.23312136 32 -21 32 C-21 32.66 -21 33.32 -21 34 C-21.71285156 34.17015625 -22.42570312 34.3403125 -23.16015625 34.515625 C-33.47371995 37.0043972 -33.47371995 37.0043972 -41 44 C-41.99 44 -42.98 44 -44 44 C-44 42.68 -44 41.36 -44 40 C-43.34 40 -42.68 40 -42 40 C-42.33 37.03 -42.66 34.06 -43 31 C-44.670625 32.485 -44.670625 32.485 -46.375 34 C-49.75 37 -49.75 37 -52 37 C-50.34406255 33.41213553 -48.37162309 30.16216412 -46 27 C-45.01 27 -44.02 27 -43 27 C-43 26.34 -43 25.68 -43 25 C-40.02148438 25.14648438 -40.02148438 25.14648438 -37.04296875 25.29296875 C-34.92526077 25.19803023 -34.92526077 25.19803023 -33.640625 23.63671875 C-30.59966895 20.60300307 -26.1325303 19.8156586 -22.12890625 18.4765625 C-18.63257635 16.82660906 -17.2553121 15.07215634 -15 12 C-14.34 12 -13.68 12 -13 12 C-13 11.34 -13 10.68 -13 10 C-12.34 10 -11.68 10 -11 10 C-11 9.34 -11 8.68 -11 8 C-10.34 8 -9.68 8 -9 8 C-8.7525 7.4225 -8.505 6.845 -8.25 6.25 C-6.15415198 2.47747356 -4.46699396 0 0 0 Z " fill="#701F3D" transform="translate(125,24)"/>
<path d="M0 0 C1 3 1 3 -0.4375 6.1875 C-1.2109375 7.5796875 -1.2109375 7.5796875 -2 9 C-2.66 9 -3.32 9 -4 9 C-3.67 9.99 -3.34 10.98 -3 12 C-2.21625 11.195625 -1.4325 10.39125 -0.625 9.5625 C2 7 2 7 4 6 C4 6.99 4 7.98 4 9 C5.32 9.33 6.64 9.66 8 10 C7.07767578 10.99580078 7.07767578 10.99580078 6.13671875 12.01171875 C5.32847656 12.89472656 4.52023438 13.77773438 3.6875 14.6875 C2.88699219 15.55761719 2.08648437 16.42773438 1.26171875 17.32421875 C-0.81548337 19.78170312 -2.43831576 22.19503316 -4 25 C-1.36 24.34 1.28 23.68 4 23 C5.24359926 26.73079778 5.24851969 28.25444093 4 32 C2.07479498 33.7478835 0.08056806 35.17559672 -2.08984375 36.60546875 C-4.26669727 38.0263598 -4.26669727 38.0263598 -6 41 C-7.32 41 -8.64 41 -10 41 C-10.61875 41.639375 -11.2375 42.27875 -11.875 42.9375 C-14.51893567 45.50367285 -16.39814072 45.67255825 -20 46 C-20.33 44.68 -20.66 43.36 -21 42 C-19.35 41.34 -17.7 40.68 -16 40 C-16 39.34 -16 38.68 -16 38 C-14.02 37.505 -14.02 37.505 -12 37 C-12 36.01 -12 35.02 -12 34 C-12.66 33.67 -13.32 33.34 -14 33 C-14 33.66 -14 34.32 -14 35 C-15.32 35 -16.64 35 -18 35 C-16.61583545 31.72833834 -14.61578209 29.39660242 -12.30859375 26.7265625 C-10.03582606 23.72786603 -8.58413239 20.40295106 -7 17 C-10.98381075 19.16264012 -13.88983545 21.71211176 -17 25 C-16.60483726 22.70805608 -16.36103839 21.34231018 -14.64453125 19.71484375 C-11.82240486 16.77205637 -10.32216314 13.01429247 -8.5 9.3984375 C-7 7 -7 7 -4 6 C-4 5.01 -4 4.02 -4 3 C-3.34 3 -2.68 3 -2 3 C-2 2.34 -2 1.68 -2 1 C-1.34 0.67 -0.68 0.34 0 0 Z " fill="#721325" transform="translate(132,7)"/>
<path d="M0 0 C0.51046875 0.37898438 1.0209375 0.75796875 1.546875 1.1484375 C-3.01008703 4.05982991 -3.01008703 4.05982991 -5.640625 4.5859375 C-6.23875 4.7715625 -6.836875 4.9571875 -7.453125 5.1484375 C-7.88625 6.1384375 -7.88625 6.1384375 -8.328125 7.1484375 C-8.699375 7.8084375 -9.070625 8.4684375 -9.453125 9.1484375 C-13.03901643 10.14027981 -14.90025103 10.33272882 -18.453125 9.1484375 C-20.46187942 9.42414889 -22.46491187 9.75079487 -24.453125 10.1484375 C-24.453125 10.8084375 -24.453125 11.4684375 -24.453125 12.1484375 C-26.763125 12.4784375 -29.073125 12.8084375 -31.453125 13.1484375 C-32.113125 15.4584375 -32.773125 17.7684375 -33.453125 20.1484375 C-34.113125 19.4884375 -34.773125 18.8284375 -35.453125 18.1484375 C-38.423125 23.5934375 -38.423125 23.5934375 -41.453125 29.1484375 C-42.773125 28.8184375 -44.093125 28.4884375 -45.453125 28.1484375 C-45.948125 30.6234375 -45.948125 30.6234375 -46.453125 33.1484375 C-47.814375 33.5815625 -47.814375 33.5815625 -49.203125 34.0234375 C-51.77515408 34.91375526 -54.06659266 35.86338163 -56.453125 37.1484375 C-56.2675 35.9109375 -56.081875 34.6734375 -55.890625 33.3984375 C-55.50601277 30.38564173 -55.3656656 28.04832923 -56.453125 25.1484375 C-54.140625 23.0859375 -54.140625 23.0859375 -51.453125 21.1484375 C-50.463125 21.4784375 -49.473125 21.8084375 -48.453125 22.1484375 C-48.453125 21.4884375 -48.453125 20.8284375 -48.453125 20.1484375 C-44.15079942 15.38099564 -44.15079942 15.38099564 -40.453125 14.1484375 C-40.453125 13.4884375 -40.453125 12.8284375 -40.453125 12.1484375 C-44.59406198 11.93873191 -44.59406198 11.93873191 -48.453125 13.1484375 C-47.89179566 9.6112937 -46.75754753 8.15582071 -44.015625 5.8984375 C-43.39816406 5.37765625 -42.78070313 4.856875 -42.14453125 4.3203125 C-40.453125 3.1484375 -40.453125 3.1484375 -38.453125 3.1484375 C-38.123125 6.1184375 -37.793125 9.0884375 -37.453125 12.1484375 C-38.113125 12.1484375 -38.773125 12.1484375 -39.453125 12.1484375 C-39.453125 13.4684375 -39.453125 14.7884375 -39.453125 16.1484375 C-36.31447695 15.3859371 -36.31447695 15.3859371 -34.453125 12.8359375 C-30.75521815 8.94578473 -25.52653634 7.50185126 -20.453125 6.1484375 C-19.133125 6.1484375 -17.813125 6.1484375 -16.453125 6.1484375 C-16.453125 5.4884375 -16.453125 4.8284375 -16.453125 4.1484375 C-14.20908798 3.25442275 -11.96022367 2.38328461 -9.703125 1.5234375 C-9.06890625 1.26820312 -8.4346875 1.01296875 -7.78125 0.75 C-3.00217062 -1.04215477 -3.00217062 -1.04215477 0 0 Z " fill="#512238" transform="translate(120.453125,51.8515625)"/>
<path d="M0 0 C0.99 0 1.98 0 3 0 C2.690625 0.86625 2.38125 1.7325 2.0625 2.625 C1.07508101 5.76150738 0.46418941 8.75067413 0 12 C1.98 11.67 3.96 11.34 6 11 C5.0159093 16.76395984 2.019915 19.10037473 -2.46875 22.38671875 C-6.13449969 24.72306847 -9.94415046 26.45628422 -14 28 C-14 28.66 -14 29.32 -14 30 C-14.66 30 -15.32 30 -16 30 C-16 30.66 -16 31.32 -16 32 C-17.38481328 32.87191947 -18.78345246 33.72190384 -20.1875 34.5625 C-20.96480469 35.03816406 -21.74210937 35.51382813 -22.54296875 36.00390625 C-25.48360967 37.19605797 -27.00446363 36.88855164 -30 36 C-30 36.66 -30 37.32 -30 38 C-31.28913487 38.67154933 -32.58140204 39.33708859 -33.875 40 C-34.59429687 40.37125 -35.31359375 40.7425 -36.0546875 41.125 C-38 42 -38 42 -40 42 C-40 40.68 -40 39.36 -40 38 C-38.02 37.505 -38.02 37.505 -36 37 C-36 36.34 -36 35.68 -36 35 C-34.68 35 -33.36 35 -32 35 C-32 34.34 -32 33.68 -32 33 C-30.3203125 31.4921875 -30.3203125 31.4921875 -28.125 29.875 C-27.40570313 29.33617188 -26.68640625 28.79734375 -25.9453125 28.2421875 C-24 27 -24 27 -22 27 C-21.690625 26.0409375 -21.690625 26.0409375 -21.375 25.0625 C-20 23 -20 23 -16.875 22.25 C-15.451875 22.12625 -15.451875 22.12625 -14 22 C-14 22.66 -14 23.32 -14 24 C-12.865625 23.401875 -11.73125 22.80375 -10.5625 22.1875 C-9.92441406 21.85105469 -9.28632812 21.51460937 -8.62890625 21.16796875 C-6.67732013 20.00980201 -6.67732013 20.00980201 -6 17 C-5.93334624 15.60560336 -5.91461801 14.20830125 -5.9375 12.8125 C-5.958125 11.554375 -5.97875 10.29625 -6 9 C-5.01 8.67 -4.02 8.34 -3 8 C-2.25740651 5.68970915 -1.588562 3.354248 -1 1 C-0.67 0.67 -0.34 0.34 0 0 Z " fill="#39192D" transform="translate(54,88)"/>
<path d="M0 0 C0.99 0 1.98 0 3 0 C3.1875 2.3125 3.1875 2.3125 3 5 C2.01172901 6.01159302 1.00936706 7.00945564 0 8 C-1.03789581 9.64333504 -2.03567924 11.31243867 -3 13 C-4.77240378 16.10170662 -6.45576698 18.51310181 -9 21 C-10.19027984 23.59915538 -10.19027984 23.59915538 -11 26 C-11.66 26 -12.32 26 -13 26 C-13 26.66 -13 27.32 -13 28 C-18.04821006 33.99474944 -24.21670168 37.22167017 -32 38 C-32.33 38.99 -32.66 39.98 -33 41 C-36.41270242 42.51675663 -39.44169126 41.72783588 -43 41 C-43 41.66 -43 42.32 -43 43 C-43.99 43 -44.98 43 -46 43 C-46.226875 43.7425 -46.45375 44.485 -46.6875 45.25 C-48.2589561 48.5425747 -49.99995716 49.97497109 -53 52 C-53.66 52 -54.32 52 -55 52 C-54.34 49.69 -53.68 47.38 -53 45 C-52.05125 44.9175 -51.1025 44.835 -50.125 44.75 C-49.09375 44.5025 -48.0625 44.255 -47 44 C-45.85790183 42.21771064 -45.85790183 42.21771064 -45 40 C-42.5625 37.25 -42.5625 37.25 -40 35 C-39.01 35 -38.02 35 -37 35 C-36.67 34.01 -36.34 33.02 -36 32 C-35.34 32.66 -34.68 33.32 -34 34 C-34.66 34.99 -35.32 35.98 -36 37 C-34.64567325 35.68799596 -33.31266518 34.35368596 -32 33 C-32 32.67 -32 32.34 -32 32 C-28.37 32 -24.74 32 -21 32 C-21 30.35 -21 28.7 -21 27 C-20.01 27 -19.02 27 -18 27 C-17.34 26.01 -16.68 25.02 -16 24 C-15.01 24 -14.02 24 -13 24 C-13 22.35 -13 20.7 -13 19 C-12.34 19 -11.68 19 -11 19 C-11.495 17.515 -11.495 17.515 -12 16 C-11.01 15.67 -10.02 15.34 -9 15 C-7.78130071 12.49552484 -7.78130071 12.49552484 -7 10 C-6.34 10 -5.68 10 -5 10 C-4.9175 9.278125 -4.835 8.55625 -4.75 7.8125 C-3.83672766 4.38772874 -2.45764212 2.52992571 0 0 Z " fill="#320D1C" transform="translate(125,8)"/>
<path d="M0 0 C0.66 0.33 1.32 0.66 2 1 C1.85831863 2.43791516 1.71148957 3.8753237 1.5625 5.3125 C1.48128906 6.11300781 1.40007813 6.91351563 1.31640625 7.73828125 C1 10 1 10 0 13 C-0.66 13 -1.32 13 -2 13 C-1.505 14.98 -1.505 14.98 -1 17 C-4.609375 20.609375 -4.609375 20.609375 -7 22 C-10.75 21.75 -10.75 21.75 -14 21 C-14.66 21.33 -15.32 21.66 -16 22 C-16 20.02 -16 18.04 -16 16 C-18.94091587 16.18415432 -18.94091587 16.18415432 -22 17 C-23.09166275 18.93330603 -23.09166275 18.93330603 -24 21 C-26.375 22.125 -26.375 22.125 -29 23 C-30.34050052 23.65213539 -31.67661368 24.31379969 -33 25 C-33.66 24.34 -34.32 23.68 -35 23 C-34.625 20.875 -34.625 20.875 -34 19 C-33.34 19 -32.68 19 -32 19 C-32 18.34 -32 17.68 -32 17 C-31.319375 17.0825 -30.63875 17.165 -29.9375 17.25 C-25.84565178 16.9017576 -23.50676554 15.1172924 -20 13 C-19.34 13 -18.68 13 -18 13 C-18 11.68 -18 10.36 -18 9 C-16.71349294 8.30289269 -15.42059335 7.61757124 -14.125 6.9375 C-13.40570313 6.55464844 -12.68640625 6.17179687 -11.9453125 5.77734375 C-10.98238281 5.39255859 -10.98238281 5.39255859 -10 5 C-9.34 5.33 -8.68 5.66 -8 6 C-8.66 7.32 -9.32 8.64 -10 10 C-9.67 10.33 -9.34 10.66 -9 11 C-8.731875 10.38125 -8.46375 9.7625 -8.1875 9.125 C-7 7 -7 7 -4 5 C-3.67 4.01 -3.34 3.02 -3 2 C-2.01 1.34 -1.02 0.68 0 0 Z " fill="#292035" transform="translate(56,107)"/>
<path d="M0 0 C0.99 0.33 1.98 0.66 3 1 C2.67 1.99 2.34 2.98 2 4 C1.87625 5.155 1.7525 6.31 1.625 7.5 C1.01149085 10.93565126 0.7245539 11.98619929 -2 14 C-0.27523089 14.95502158 -0.27523089 14.95502158 2 15 C4.66666667 12.66666667 4.66666667 12.66666667 7 10 C7.66 9.67 8.32 9.34 9 9 C9.495 10.485 9.495 10.485 10 12 C6.88628118 15.38060901 4.45912603 17.70920036 0 19 C-0.99 19 -1.98 19 -3 19 C-3.66 17.68 -4.32 16.36 -5 15 C-5.0928125 16.175625 -5.0928125 16.175625 -5.1875 17.375 C-5.455625 18.24125 -5.72375 19.1075 -6 20 C-8.5 21.125 -8.5 21.125 -11 22 C-11.33 22.99 -11.66 23.98 -12 25 C-10.35 25 -8.7 25 -7 25 C-7 25.66 -7 26.32 -7 27 C-7.598125 27.103125 -8.19625 27.20625 -8.8125 27.3125 C-11.36316765 28.1141384 -12.36691995 28.90032564 -14 31 C-14.71447643 33.10332891 -14.71447643 33.10332891 -15 35 C-15.66 35 -16.32 35 -17 35 C-17 33.68 -17 32.36 -17 31 C-19.97 34.3 -22.94 37.6 -26 41 C-26.495 39.515 -26.495 39.515 -27 38 C-26.34 37.01 -25.68 36.02 -25 35 C-24.34 35 -23.68 35 -23 35 C-22.87625 34.25234375 -22.7525 33.5046875 -22.625 32.734375 C-20.94797474 24.72657936 -20.94797474 24.72657936 -18.16015625 22.58984375 C-16.76528917 21.98981713 -15.3556829 21.42292993 -13.93359375 20.890625 C-10.80600556 19.45003893 -9.61930163 16.9271991 -8 14 C-7.34 13.01 -6.68 12.02 -6 11 C-5.34 11 -4.68 11 -4 11 C-3.855625 10.236875 -3.71125 9.47375 -3.5625 8.6875 C-3 6 -3 6 -2 3 C-1.34 3 -0.68 3 0 3 C0 2.01 0 1.02 0 0 Z " fill="#2D2A3E" transform="translate(87,69)"/>
<path d="M0 0 C1 3 1 3 -0.4375 6.1875 C-1.2109375 7.5796875 -1.2109375 7.5796875 -2 9 C-2.66 9 -3.32 9 -4 9 C-3.67 9.99 -3.34 10.98 -3 12 C-2.21625 11.195625 -1.4325 10.39125 -0.625 9.5625 C2 7 2 7 4 6 C4 6.99 4 7.98 4 9 C5.32 9.33 6.64 9.66 8 10 C7.07767578 10.99580078 7.07767578 10.99580078 6.13671875 12.01171875 C5.32847656 12.89472656 4.52023438 13.77773438 3.6875 14.6875 C2.88699219 15.55761719 2.08648437 16.42773438 1.26171875 17.32421875 C-0.81548337 19.78170312 -2.43831576 22.19503316 -4 25 C-1.36 24.34 1.28 23.68 4 23 C5 26 5 26 4.375 28 C2.57831402 30.61336142 0.87897805 31.69760517 -2 33 C-4.3125 32.6875 -4.3125 32.6875 -6 32 C-4.68 31.34 -3.36 30.68 -2 30 C-2 29.01 -2 28.02 -2 27 C-3.98 27 -5.96 27 -8 27 C-8.22036864 23.14354879 -7.60355101 20.50776784 -6 17 C-5.01 17 -4.02 17 -3 17 C-3 16.34 -3 15.68 -3 15 C-3.66 15 -4.32 15 -5 15 C-5.33 14.34 -5.66 13.68 -6 13 C-6.66 13 -7.32 13 -8 13 C-8.20625 13.680625 -8.4125 14.36125 -8.625 15.0625 C-10.45408866 18.97009851 -13.10279034 21.83857939 -16 25 C-16.33 24.01 -16.66 23.02 -17 22 C-16.40316406 21.45730469 -15.80632812 20.91460938 -15.19140625 20.35546875 C-12.13446565 17.06966628 -10.45717959 13.35323764 -8.46484375 9.36328125 C-7 7 -7 7 -4 6 C-4 5.01 -4 4.02 -4 3 C-3.34 3 -2.68 3 -2 3 C-2 2.34 -2 1.68 -2 1 C-1.34 0.67 -0.68 0.34 0 0 Z " fill="#60101F" transform="translate(132,7)"/>
<path d="M0 0 C0.66 0 1.32 0 2 0 C1.86851563 0.51433594 1.73703125 1.02867188 1.6015625 1.55859375 C1.12790183 3.48091789 0.69335369 5.41288109 0.2734375 7.34765625 C-2.10887097 17.19798387 -2.10887097 17.19798387 -4.6796875 19.51171875 C-6.5 20.25 -6.5 20.25 -10 21 C-11.34013497 21.65288627 -12.67741528 22.31225595 -14 23 C-13.814375 21.7625 -13.62875 20.525 -13.4375 19.25 C-13.05288777 16.23720423 -12.9125406 13.89989173 -14 11 C-11.6875 8.9375 -11.6875 8.9375 -9 7 C-8.01 7.33 -7.02 7.66 -6 8 C-6 7.34 -6 6.68 -6 6 C-4.37550757 4.29220027 -2.70779973 2.62449243 -1 1 C-0.67 0.67 -0.34 0.34 0 0 Z " fill="#4C192A" transform="translate(78,66)"/>
<path d="M0 0 C-1.28985303 6.8533155 -6.62165333 12.77966358 -11 18 C-9.68 18 -8.36 18 -7 18 C-7 17.34 -7 16.68 -7 16 C-6.01 16.33 -5.02 16.66 -4 17 C-4.33 17.99 -4.66 18.98 -5 20 C-7.0625 20.6875 -7.0625 20.6875 -9 21 C-9 21.66 -9 22.32 -9 23 C-10.98 23.33 -12.96 23.66 -15 24 C-15 23.34 -15 22.68 -15 22 C-15.99 21.67 -16.98 21.34 -18 21 C-18 20.67 -18 20.34 -18 20 C-16.35 20 -14.7 20 -13 20 C-13 19.01 -13 18.02 -13 17 C-13.66 17 -14.32 17 -15 17 C-15 16.01 -15 15.02 -15 14 C-14.34 14 -13.68 14 -13 14 C-13 12.68 -13 11.36 -13 10 C-12.34 10 -11.68 10 -11 10 C-11 9.34 -11 8.68 -11 8 C-10.34 8 -9.68 8 -9 8 C-8.7525 7.4225 -8.505 6.845 -8.25 6.25 C-6.15415198 2.47747356 -4.46699396 0 0 0 Z " fill="#931331" transform="translate(125,24)"/>
<path d="M0 0 C-0.62974643 2.93881668 -1.37759324 5.45494658 -3 8 C-4.91796875 8.65234375 -4.91796875 8.65234375 -7.1875 8.9375 C-10.74496526 9.56191822 -12.99705371 10.43432446 -15.875 12.625 C-19 15 -19 15 -22 15 C-22.66 13.35 -23.32 11.7 -24 10 C-20.75490696 7.96022723 -17.59391114 6.33488128 -14 5 C-14 4.34 -14 3.68 -14 3 C-12.23050388 2.49528803 -10.45934777 1.99639315 -8.6875 1.5 C-7.70136719 1.2215625 -6.71523437 0.943125 -5.69921875 0.65625 C-3 0 -3 0 0 0 Z " fill="#B52045" transform="translate(110,46)"/>
<path d="M0 0 C0.66 0.33 1.32 0.66 2 1 C2 2.65 2 4.3 2 6 C-1.08809695 7.76462683 -2.23312136 8 -6 8 C-6 8.66 -6 9.32 -6 10 C-6.71285156 10.17015625 -7.42570312 10.3403125 -8.16015625 10.515625 C-18.47371995 13.0043972 -18.47371995 13.0043972 -26 20 C-26.99 20 -27.98 20 -29 20 C-29 18.68 -29 17.36 -29 16 C-28.34 16 -27.68 16 -27 16 C-27.20625 14.72125 -27.4125 13.4425 -27.625 12.125 C-27.9765625 9.9453125 -27.9765625 9.9453125 -28 8 C-27.34 7.34 -26.68 6.68 -26 6 C-23.875 6.375 -23.875 6.375 -22 7 C-22 9 -22 11 -22 13 C-20.4221875 12.1028125 -20.4221875 12.1028125 -18.8125 11.1875 C-17.84763672 10.64416016 -17.84763672 10.64416016 -16.86328125 10.08984375 C-14.85571024 8.94952621 -14.85571024 8.94952621 -12.5 7.25 C-9.22874326 5.61437163 -6.60526264 5.78792573 -3 6 C-2.87625 5.38125 -2.7525 4.7625 -2.625 4.125 C-2 2 -2 2 0 0 Z " fill="#821D35" transform="translate(110,48)"/>
<path d="M0 0 C0.66 0.33 1.32 0.66 2 1 C1.34 5.29 0.68 9.58 0 14 C-0.99 14.33 -1.98 14.66 -3 15 C-3 16.32 -3 17.64 -3 19 C-6 21 -6 21 -8.6875 20.625 C-9.8321875 20.315625 -9.8321875 20.315625 -11 20 C-10.44130706 12.9232228 -7.36047107 6.20310633 -2.1875 1.375 C-1.465625 0.92125 -0.74375 0.4675 0 0 Z " fill="#6F1A2D" transform="translate(64,80)"/>
<path d="M0 0 C2.97 0 5.94 0 9 0 C9.73633974 4.14191103 9.51588855 6.11684794 7.359375 9.80859375 C4.2594714 14.13123711 1.44538056 17.99636449 -3 21 C-3 19.35 -3 17.7 -3 16 C-2.34 16 -1.68 16 -1 16 C-0.7834375 14.8553125 -0.7834375 14.8553125 -0.5625 13.6875 C0 11 0 11 1 8 C0.34 8 -0.32 8 -1 8 C-1 8.66 -1 9.32 -1 10 C-1.66 10 -2.32 10 -3 10 C-2.39009109 6.44219804 -1.4216319 3.3171411 0 0 Z " fill="#4D0D19" transform="translate(131,0)"/>
<path d="M0 0 C0 0.99 0 1.98 0 3 C-1.32 3.33 -2.64 3.66 -4 4 C-4 4.66 -4 5.32 -4 6 C-2.906875 5.484375 -1.81375 4.96875 -0.6875 4.4375 C3 3 3 3 6 4 C5.34 4 4.68 4 4 4 C4 4.66 4 5.32 4 6 C2.61518672 6.87191947 1.21654754 7.72190384 -0.1875 8.5625 C-0.96480469 9.03816406 -1.74210937 9.51382813 -2.54296875 10.00390625 C-5.48360967 11.19605797 -7.00446363 10.88855164 -10 10 C-10 10.66 -10 11.32 -10 12 C-11.28913487 12.67154933 -12.58140204 13.33708859 -13.875 14 C-14.59429688 14.37125 -15.31359375 14.7425 -16.0546875 15.125 C-18 16 -18 16 -20 16 C-20 14.68 -20 13.36 -20 12 C-18.68 11.67 -17.36 11.34 -16 11 C-16 10.34 -16 9.68 -16 9 C-14.68 9 -13.36 9 -12 9 C-12 8.34 -12 7.68 -12 7 C-10.3203125 5.52734375 -10.3203125 5.52734375 -8.125 3.9375 C-7.40570313 3.41027344 -6.68640625 2.88304688 -5.9453125 2.33984375 C-2.54810496 0 -2.54810496 0 0 0 Z " fill="#471433" transform="translate(34,114)"/>
<path d="M0 0 C1.32 0 2.64 0 4 0 C3.05432178 3.89156791 2.09717698 4.93513868 -1.30078125 7.203125 C-2.62977482 7.90134252 -3.96744705 8.58324353 -5.3125 9.25 C-5.97701172 9.600625 -6.64152344 9.95125 -7.32617188 10.3125 C-10.85671922 12.12840961 -14.01710329 13.47613738 -18 14 C-18 13.34 -18 12.68 -18 12 C-16.68 11.67 -15.36 11.34 -14 11 C-14 10.01 -14 9.02 -14 8 C-14.66 7.67 -15.32 7.34 -16 7 C-11.375 4 -11.375 4 -8 4 C-8 4.66 -8 5.32 -8 6 C-6.865625 5.38125 -5.73125 4.7625 -4.5625 4.125 C-3.92441406 3.77695313 -3.28632812 3.42890625 -2.62890625 3.0703125 C-0.83381685 2.08589976 -0.83381685 2.08589976 0 0 Z " fill="#221424" transform="translate(48,106)"/>
<path d="M0 0 C0.99 0 1.98 0 3 0 C3.1875 2.3125 3.1875 2.3125 3 5 C2.01169472 6.01155952 1.00938905 7.00947804 0 8 C-1.54574538 10.46907062 -2.96834887 12.9920408 -4.40234375 15.52734375 C-6.05537836 18.08570783 -7.67185048 20.03633573 -10 22 C-10.99 22 -11.98 22 -13 22 C-13 21.01 -13 20.02 -13 19 C-12.34 19 -11.68 19 -11 19 C-11.33 18.01 -11.66 17.02 -12 16 C-11.01 15.67 -10.02 15.34 -9 15 C-7.78130071 12.49552484 -7.78130071 12.49552484 -7 10 C-6.34 10 -5.68 10 -5 10 C-4.9175 9.278125 -4.835 8.55625 -4.75 7.8125 C-3.83672766 4.38772874 -2.45764212 2.52992571 0 0 Z " fill="#1F0E16" transform="translate(125,8)"/>
<path d="M0 0 C0.51046875 0.37898438 1.0209375 0.75796875 1.546875 1.1484375 C-3.01008703 4.05982991 -3.01008703 4.05982991 -5.640625 4.5859375 C-6.5378125 4.864375 -6.5378125 4.864375 -7.453125 5.1484375 C-7.88625 6.1384375 -7.88625 6.1384375 -8.328125 7.1484375 C-8.699375 7.8084375 -9.070625 8.4684375 -9.453125 9.1484375 C-12.578125 9.8984375 -12.578125 9.8984375 -15.453125 10.1484375 C-15.783125 9.1584375 -16.113125 8.1684375 -16.453125 7.1484375 C-18.46820858 6.41519954 -18.46820858 6.41519954 -20.453125 6.1484375 C-19.133125 6.1484375 -17.813125 6.1484375 -16.453125 6.1484375 C-16.453125 5.4884375 -16.453125 4.8284375 -16.453125 4.1484375 C-14.20908798 3.25442275 -11.96022367 2.38328461 -9.703125 1.5234375 C-9.06890625 1.26820312 -8.4346875 1.01296875 -7.78125 0.75 C-3.00217062 -1.04215477 -3.00217062 -1.04215477 0 0 Z " fill="#621A2B" transform="translate(120.453125,51.8515625)"/>
<path d="M0 0 C-0.50603992 2.16874252 -0.99983813 3.99967627 -2 6 C-2.66 6 -3.32 6 -4 6 C-4.66 7.32 -5.32 8.64 -6 10 C-6.99 10 -7.98 10 -9 10 C-10.33981486 10.3062434 -11.67511887 10.63451555 -13 11 C-12.21625 10.278125 -11.4325 9.55625 -10.625 8.8125 C-7.89582747 6.23890046 -7.89582747 6.23890046 -6.9375 3.25 C-6.628125 2.5075 -6.31875 1.765 -6 1 C-3.84657966 0.12517299 -2.30989225 0 0 0 Z M-14 11 C-13.67 11.99 -13.34 12.98 -13 14 C-13.928125 14.3403125 -13.928125 14.3403125 -14.875 14.6875 C-17.61410209 16.37929835 -18.05024472 17.99244161 -19 21 C-19.66 20.01 -20.32 19.02 -21 18 C-16.25 12.125 -16.25 12.125 -14 11 Z " fill="#3F1E3A" transform="translate(66,98)"/>
<path d="M0 0 C0 0.66 0 1.32 0 2 C-1.98 2.33 -3.96 2.66 -6 3 C-6 3.66 -6 4.32 -6 5 C-11.72161172 10.33150183 -11.72161172 10.33150183 -16 11 C-18.00382009 11.65509503 -20.00458132 12.31974363 -22 13 C-22 11.68 -22 10.36 -22 9 C-21.236875 8.896875 -20.47375 8.79375 -19.6875 8.6875 C-16.78105605 7.94399108 -15.96433971 7.15141968 -14 5 C-13.34 5 -12.68 5 -12 5 C-12 4.34 -12 3.68 -12 3 C-11.05125 2.690625 -10.1025 2.38125 -9.125 2.0625 C-3.05882353 0 -3.05882353 0 0 0 Z " fill="#20060D" transform="translate(78,50)"/>
<path d="M0 0 C-0.63754697 3.37208576 -1.9119395 5.71887656 -3.8125 8.5625 C-4.31394531 9.32691406 -4.81539063 10.09132813 -5.33203125 10.87890625 C-7.03115191 13.03961472 -8.73501486 14.46216844 -11 16 C-11 13.36 -11 10.72 -11 8 C-10.34 8 -9.68 8 -9 8 C-8.7525 7.4225 -8.505 6.845 -8.25 6.25 C-6.15415198 2.47747356 -4.46699396 0 0 0 Z " fill="#8B1027" transform="translate(125,24)"/>
<path d="M0 0 C2.125 0.375 2.125 0.375 4 1 C4 3 4 5 4 7 C4.66 7.33 5.32 7.66 6 8 C0.85714286 13.57142857 0.85714286 13.57142857 -3 14 C-3 12.68 -3 11.36 -3 10 C-2.34 10 -1.68 10 -1 10 C-1.20625 8.72125 -1.4125 7.4425 -1.625 6.125 C-1.9765625 3.9453125 -1.9765625 3.9453125 -2 2 C-1.34 1.34 -0.68 0.68 0 0 Z " fill="#7A203E" transform="translate(84,54)"/>
<path d="M0 0 C0.99 0 1.98 0 3 0 C2.67 1.32 2.34 2.64 2 4 C1.34 4 0.68 4 0 4 C0 4.66 0 5.32 0 6 C-3.26211415 9.74183682 -6.38033599 12.1521344 -11 14 C-11.66 13.67 -12.32 13.34 -13 13 C-12.67 12.67 -12.34 12.34 -12 12 C-12.66 11.34 -13.32 10.68 -14 10 C-12.02 10 -10.04 10 -8 10 C-8 8.35 -8 6.7 -8 5 C-7.01 5 -6.02 5 -5 5 C-4.34 4.01 -3.68 3.02 -3 2 C-2.01 2 -1.02 2 0 2 C0 1.34 0 0.68 0 0 Z " fill="#301728" transform="translate(112,30)"/>
<path d="M0 0 C0.33 2.97 0.66 5.94 1 9 C0.34 9 -0.32 9 -1 9 C-1.33 9.66 -1.66 10.32 -2 11 C-2 10.34 -2 9.68 -2 9 C-6.14093698 8.79029441 -6.14093698 8.79029441 -10 10 C-9.43867066 6.4628562 -8.30442253 5.00738321 -5.5625 2.75 C-4.94503906 2.22921875 -4.32757813 1.7084375 -3.69140625 1.171875 C-2 0 -2 0 0 0 Z " fill="#541633" transform="translate(82,55)"/>
<path d="M0 0 C-1.2903172 2.87839991 -2.45406381 5.09054786 -5 7 C-8.1875 7.6875 -8.1875 7.6875 -11 8 C-11.33 6.68 -11.66 5.36 -12 4 C-10.35 3.34 -8.7 2.68 -7 2 C-7 1.34 -7 0.68 -7 0 C-4.3333581 -1.33332095 -2.83319697 -0.67102033 0 0 Z " fill="#7B172B" transform="translate(123,45)"/>
<path d="M0 0 C0.66 0.33 1.32 0.66 2 1 C1.6875 4.375 1.6875 4.375 1 8 C-2 10 -2 10 -4.6875 9.625 C-5.450625 9.41875 -6.21375 9.2125 -7 9 C-6.25 3.25 -6.25 3.25 -4 1 C-3.01 1 -2.02 1 -1 1 C-0.67 0.67 -0.34 0.34 0 0 Z " fill="#511C2D" transform="translate(60,91)"/>
<path d="M0 0 C0.66 0.33 1.32 0.66 2 1 C-3.93074827 6.36992101 -7.91904181 8.87173082 -16 9 C-15.01 8.67 -14.02 8.34 -13 8 C-11.78130071 5.49552484 -11.78130071 5.49552484 -11 3 C-9 3 -7 3 -5 3 C-4.175 2.484375 -3.35 1.96875 -2.5 1.4375 C-1.675 0.963125 -0.85 0.48875 0 0 Z " fill="#4C111D" transform="translate(141,24)"/>
<path d="M0 0 C0.66 0 1.32 0 2 0 C2 0.66 2 1.32 2 2 C1.34 2 0.68 2 0 2 C0 2.99 0 3.98 0 5 C0.66 5 1.32 5 2 5 C2 5.99 2 6.98 2 8 C-1.50538557 9.96301592 -5.13351728 10.95902388 -9 12 C-9 11.34 -9 10.68 -9 10 C-8.01 10 -7.02 10 -6 10 C-6 8.68 -6 7.36 -6 6 C-3.5625 3.3125 -3.5625 3.3125 -1 1 C-0.67 0.67 -0.34 0.34 0 0 Z " fill="#861B3B" transform="translate(110,36)"/>
<path d="M0 0 C0.66 0.33 1.32 0.66 2 1 C1.01 4.3 0.02 7.6 -1 11 C-1.66 11 -2.32 11 -3 11 C-3.2475 11.639375 -3.495 12.27875 -3.75 12.9375 C-5 15 -5 15 -7.125 15.75 C-8.053125 15.87375 -8.053125 15.87375 -9 16 C-9 14.35 -9 12.7 -9 11 C-7.68 11 -6.36 11 -5 11 C-3.35 7.37 -1.7 3.74 0 0 Z " fill="#5C2144" transform="translate(84,69)"/>
<path d="M0 0 C-0.62759865 2.92879371 -1.58622659 5.36095629 -3 8 C-4.98 8 -6.96 8 -9 8 C-8.01 7.67 -7.02 7.34 -6 7 C-6 6.01 -6 5.02 -6 4 C-6.99 4 -7.98 4 -9 4 C-9 3.34 -9 2.68 -9 2 C-3.375 0 -3.375 0 0 0 Z " fill="#BA1B3F" transform="translate(110,46)"/>
<path d="M0 0 C2.64 0.33 5.28 0.66 8 1 C7.2890625 2.921875 7.2890625 2.921875 6 5 C3.8359375 5.828125 3.8359375 5.828125 1.375 6.25 C0.14910156 6.47429688 0.14910156 6.47429688 -1.1015625 6.703125 C-1.72804688 6.80109375 -2.35453125 6.8990625 -3 7 C-2.690625 6.401875 -2.38125 5.80375 -2.0625 5.1875 C-0.89790296 2.91043228 -0.89790296 2.91043228 0 0 Z " fill="#1E0D1B" transform="translate(93,40)"/>
<path d="M0 0 C0.66 0 1.32 0 2 0 C2 2.31 2 4.62 2 7 C-0.31 7.66 -2.62 8.32 -5 9 C-5 4.68381834 -2.86729652 3.07210341 0 0 Z " fill="#181824" transform="translate(22,152)"/>
<path d="M0 0 C0.99 0 1.98 0 3 0 C1.125 5.75 1.125 5.75 0 8 C-0.66 8 -1.32 8 -2 8 C-2.66 9.32 -3.32 10.64 -4 12 C-4.66 12 -5.32 12 -6 12 C-5.67 10.68 -5.34 9.36 -5 8 C-4.34 8 -3.68 8 -3 8 C-2.690625 6.865625 -2.38125 5.73125 -2.0625 4.5625 C-1 1 -1 1 0 0 Z " fill="#390F1D" transform="translate(54,88)"/>
<path d="M0 0 C0.33 0 0.66 0 1 0 C1.19392201 5.52677733 0.7479503 9.75614911 -1 15 C-1.99 14.67 -2.98 14.34 -4 14 C-3.71572583 12.41532272 -3.42225182 10.8322943 -3.125 9.25 C-2.96257812 8.36828125 -2.80015625 7.4865625 -2.6328125 6.578125 C-2.03203736 4.13052256 -1.22002883 2.19400143 0 0 Z " fill="#5C1D37" transform="translate(80,66)"/>
<path d="M0 0 C0 3 0 3 -1.3046875 4.36328125 C-1.86414063 4.90339844 -2.42359375 5.44351562 -3 6 C-4.07978177 7.70562544 -5.11964596 9.43697149 -6.125 11.1875 C-7.05658543 12.80734631 -8.00776301 14.41657989 -9 16 C-9.33 16 -9.66 16 -10 16 C-10 14.35 -10 12.7 -10 11 C-9.01 10.67 -8.02 10.34 -7 10 C-7 8.68 -7 7.36 -7 6 C-6.34 6 -5.68 6 -5 6 C-5 5.01 -5 4.02 -5 3 C-2.55555556 0 -2.55555556 0 0 0 Z " fill="#390D1A" transform="translate(128,10)"/>
<path d="M0 0 C0.33 0.99 0.66 1.98 1 3 C-0.32 3.33 -1.64 3.66 -3 4 C-3 4.66 -3 5.32 -3 6 C-4.98 6 -6.96 6 -9 6 C-8.4375 4.125 -8.4375 4.125 -7 2 C-3.375 0.75 -3.375 0.75 0 0 Z " fill="#C8214A" transform="translate(95,52)"/>
<path d="M0 0 C0.66 0.33 1.32 0.66 2 1 C1.5 3.375 1.5 3.375 0 6 C-2.66525288 7.08241903 -5.1407915 7.49272107 -8 8 C-8 6.68 -8 5.36 -8 4 C-6.71349294 3.30289269 -5.42059335 2.61757124 -4.125 1.9375 C-3.40570313 1.55464844 -2.68640625 1.17179687 -1.9453125 0.77734375 C-1.30335937 0.52082031 -0.66140625 0.26429687 0 0 Z " fill="#341930" transform="translate(46,112)"/>
<path d="M0 0 C1.32 0.66 2.64 1.32 4 2 C1.53846154 6.8 1.53846154 6.8 -1.1875 7.8125 C-1.785625 7.874375 -2.38375 7.93625 -3 8 C-3.75 6.25 -3.75 6.25 -4 4 C-2.0625 1.75 -2.0625 1.75 0 0 Z " fill="#411020" transform="translate(68,73)"/>
<path d="M0 0 C0.99 0.33 1.98 0.66 3 1 C2.34 1 1.68 1 1 1 C1 1.66 1 2.32 1 3 C-0.32 3 -1.64 3 -3 3 C-3 3.66 -3 4.32 -3 5 C-8.75 8 -8.75 8 -11 8 C-11 7.01 -11 6.02 -11 5 C-9.02 4.67 -7.04 4.34 -5 4 C-5 3.01 -5 2.02 -5 1 C-3.35 1.33 -1.7 1.66 0 2 C0 1.34 0 0.68 0 0 Z " fill="#200F1D" transform="translate(21,120)"/>
<path d="M0 0 C-0.50603992 2.16874252 -0.99983813 3.99967627 -2 6 C-3.32 6 -4.64 6 -6 6 C-6.33 6.66 -6.66 7.32 -7 8 C-6.67 5.69 -6.34 3.38 -6 1 C-3.92446352 0.4465236 -2.15634036 0 0 0 Z " fill="#4A203F" transform="translate(66,98)"/>
<path d="M0 0 C2 2 2 2 2 4 C2.66 4.66 3.32 5.32 4 6 C1.34771188 7.07525194 -1.28368454 8.09456151 -4 9 C-4.25 6.75 -4.25 6.75 -4 4 C-2 1.6875 -2 1.6875 0 0 Z " fill="#451727" transform="translate(52,96)"/>
<path d="M0 0 C0.556875 0.226875 1.11375 0.45375 1.6875 0.6875 C1.0625 2.625 1.0625 2.625 -0.3125 4.6875 C-3.4375 5.4375 -3.4375 5.4375 -6.3125 5.6875 C-6.6425 4.6975 -6.9725 3.7075 -7.3125 2.6875 C-2.88173077 -0.38942308 -2.88173077 -0.38942308 0 0 Z " fill="#53192C" transform="translate(111.3125,56.3125)"/>
<path d="M0 0 C2.475 0.99 2.475 0.99 5 2 C4.67 2.99 4.34 3.98 4 5 C0.8033 6.37001429 -1.69903842 5.8252404 -5 5 C-4.34 4.67 -3.68 4.34 -3 4 C-3 3.34 -3 2.68 -3 2 C-2.01 2 -1.02 2 0 2 C0 1.34 0 0.68 0 0 Z " fill="#4D0B22" transform="translate(88,44)"/>
<path d="M0 0 C0 0.99 0 1.98 0 3 C-4.95 5.475 -4.95 5.475 -10 8 C-7.94634029 3.89268059 -5.04814567 0 0 0 Z " fill="#5A1031" transform="translate(34,114)"/>
<path d="M0 0 C0.99 0.33 1.98 0.66 3 1 C2.75 3.375 2.75 3.375 2 6 C-0.0625 7.3125 -0.0625 7.3125 -2 8 C-2.6875 5.6875 -2.6875 5.6875 -3 3 C-1.5625 1.1875 -1.5625 1.1875 0 0 Z " fill="#601D41" transform="translate(64,92)"/>
<path d="M0 0 C-1.43160268 1.00842453 -2.87051453 2.00647891 -4.3125 3 C-5.51326172 3.8353125 -5.51326172 3.8353125 -6.73828125 4.6875 C-9 6 -9 6 -12 6 C-12.33 5.01 -12.66 4.02 -13 3 C-11.35 3 -9.7 3 -8 3 C-8 2.34 -8 1.68 -8 1 C-4.85571151 -0.9090323 -3.47925125 -1.04523725 0 0 Z " fill="#A52044" transform="translate(100,55)"/>
<path d="M0 0 C0.33 1.32 0.66 2.64 1 4 C2.32 4.33 3.64 4.66 5 5 C-0.75 8 -0.75 8 -3 8 C-3.36923077 3.44615385 -3.36923077 3.44615385 -1.5 1.1875 C-1.005 0.795625 -0.51 0.40375 0 0 Z " fill="#631423" transform="translate(123,30)"/>
<path d="M0 0 C0.99 0.33 1.98 0.66 3 1 C2.74438677 3.3431213 2.40729228 5.67843403 2 8 C1.01 8.495 1.01 8.495 0 9 C-2 6 -2 6 -2 3 C-1.34 2.01 -0.68 1.02 0 0 Z " fill="#632229" transform="translate(62,86)"/>
<path d="M0 0 C0.33 0.66 0.66 1.32 1 2 C1.66 2 2.32 2 3 2 C3 2.66 3 3.32 3 4 C1.824375 4.61875 1.824375 4.61875 0.625 5.25 C-2.6733333 7.44888887 -3.07871568 9.23110958 -4 13 C-4.66 13 -5.32 13 -6 13 C-5.01 10.03 -4.02 7.06 -3 4 C-2.34 4 -1.68 4 -1 4 C-0.67 2.68 -0.34 1.36 0 0 Z " fill="#511E26" transform="translate(70,76)"/>
<path d="M0 0 C0 0.99 0 1.98 0 3 C-1.65 3 -3.3 3 -5 3 C-5 3.99 -5 4.98 -5 6 C-4.34 6.33 -3.68 6.66 -3 7 C-4.65 7.66 -6.3 8.32 -8 9 C-7.8125 6.1875 -7.8125 6.1875 -7 3 C-4.59196729 1.14766715 -3.07258075 0 0 0 Z " fill="#38293E" transform="translate(74,90)"/>
<path d="M0 0 C0.33 1.32 0.66 2.64 1 4 C-1.31 5.32 -3.62 6.64 -6 8 C-5.62403791 5.21788056 -5.32681541 3.4120716 -3.5625 1.1875 C-2 0 -2 0 0 0 Z " fill="#311C29" transform="translate(72,80)"/>
<path d="M0 0 C0.66 0.33 1.32 0.66 2 1 C1.67 1.66 1.34 2.32 1 3 C1.99 3.33 2.98 3.66 4 4 C-1.75 7 -1.75 7 -4 7 C-4 5.68 -4 4.36 -4 3 C-2.68 2.67 -1.36 2.34 0 2 C0 1.34 0 0.68 0 0 Z " fill="#3A122C" transform="translate(18,123)"/>
<path d="M0 0 C0.33 0 0.66 0 1 0 C0.67 2.97 0.34 5.94 0 9 C-1.32 9.33 -2.64 9.66 -4 10 C-3.34 9.67 -2.68 9.34 -2 9 C-2.226875 8.443125 -2.45375 7.88625 -2.6875 7.3125 C-3.12692663 4.06074293 -1.87304774 2.59345072 0 0 Z " fill="#41202F" transform="translate(75,75)"/>
<path d="M0 0 C1.65 0 3.3 0 5 0 C4.42655063 2.86724686 4.1385485 3.8614515 2 6 C1.01 6 0.02 6 -1 6 C-1 5.01 -1 4.02 -1 3 C-0.34 3 0.32 3 1 3 C0.67 2.01 0.34 1.02 0 0 Z " fill="#26111D" transform="translate(113,24)"/>
<path d="M0 0 C0 0.99 0 1.98 0 3 C-1.98 3 -3.96 3 -6 3 C-6 3.66 -6 4.32 -6 5 C-7.65 5 -9.3 5 -11 5 C-11 4.34 -11 3.68 -11 3 C-9.73160474 2.49384702 -8.46016898 1.99530901 -7.1875 1.5 C-6.12595703 1.08234375 -6.12595703 1.08234375 -5.04296875 0.65625 C-3 0 -3 0 0 0 Z " fill="#621C31" transform="translate(104,43)"/>
<path d="M0 0 C1.32 0.33 2.64 0.66 4 1 C1.69 3.64 -0.62 6.28 -3 9 C-3.66 8.67 -4.32 8.34 -5 8 C-5 7.34 -5 6.68 -5 6 C-4.34 6 -3.68 6 -3 6 C-2.690625 5.38125 -2.38125 4.7625 -2.0625 4.125 C-1.375 2.75 -0.6875 1.375 0 0 Z " fill="#50111C" transform="translate(136,16)"/>
<path d="M0 0 C-1.24546405 3.73639216 -2.63404953 4.18756513 -6 6 C-6 5.34 -6 4.68 -6 4 C-6.66 3.67 -7.32 3.34 -8 3 C-3.375 0 -3.375 0 0 0 Z " fill="#3A0F21" transform="translate(40,110)"/>
<path d="M0 0 C-0.75 2.4375 -0.75 2.4375 -2 5 C-4.125 5.8125 -4.125 5.8125 -6 6 C-6 4.68 -6 3.36 -6 2 C-3 0 -3 0 0 0 Z " fill="#8B273E" transform="translate(87,62)"/>
<path d="M0 0 C0.99 0.33 1.98 0.66 3 1 C1.71451591 2.33929505 0.42141845 3.67128643 -0.875 5 C-1.59429687 5.7425 -2.31359375 6.485 -3.0546875 7.25 C-5 9 -5 9 -7 9 C-5.44499019 5.18315774 -2.96404505 2.80804268 0 0 Z " fill="#891B45" transform="translate(80,52)"/>
<path d="M0 0 C2.64 0 5.28 0 8 0 C7.67 1.32 7.34 2.64 7 4 C5.68 4 4.36 4 3 4 C3 3.34 3 2.68 3 2 C2.01 1.67 1.02 1.34 0 1 C0 0.67 0 0.34 0 0 Z " fill="#A41634" transform="translate(107,44)"/>
<path d="M0 0 C1.32 0 2.64 0 4 0 C2.25 4.875 2.25 4.875 0 6 C0 5.34 0 4.68 0 4 C-1.32 3.67 -2.64 3.34 -4 3 C-3.01 2.67 -2.02 2.34 -1 2 C-0.67 1.34 -0.34 0.68 0 0 Z " fill="#2D1628" transform="translate(48,106)"/>
<path d="M0 0 C1.32 0.33 2.64 0.66 4 1 C4 2.32 4 3.64 4 5 C1 5 1 5 -2 4 C-1.34 2.68 -0.68 1.36 0 0 Z " fill="#8C2648" transform="translate(84,54)"/>
<path d="M0 0 C0.66 0.33 1.32 0.66 2 1 C0.875 3.5 0.875 3.5 -1 6 C-4.1875 6.3125 -4.1875 6.3125 -7 6 C-6.01 5.67 -5.02 5.34 -4 5 C-4 4.01 -4 3.02 -4 2 C-2.125 0.9375 -2.125 0.9375 0 0 Z " fill="#A11A39" transform="translate(108,48)"/>
<path d="M0 0 C5.75 -0.125 5.75 -0.125 8 1 C8 1.66 8 2.32 8 3 C6.02 3.33 4.04 3.66 2 4 C1.33333333 2.66666667 0.66666667 1.33333333 0 0 Z " fill="#68122C" transform="translate(82,49)"/>
<path d="M0 0 C0.66 0 1.32 0 2 0 C2 0.66 2 1.32 2 2 C3.32 2.33 4.64 2.66 6 3 C3.03 3.66 0.06 4.32 -3 5 C-1 1 -1 1 0 0 Z " fill="#330E1D" transform="translate(93,42)"/>
<path d="M0 0 C0.33 0.99 0.66 1.98 1 3 C-0.40445835 5.2636564 -2.1967913 7.0208685 -4 9 C-4.33 8.01 -4.66 7.02 -5 6 C-4.34 5.01 -3.68 4.02 -3 3 C-2.34 3 -1.68 3 -1 3 C-0.67 2.01 -0.34 1.02 0 0 Z " fill="#2F2C43" transform="translate(65,101)"/>
<path d="M0 0 C0.66 0.99 1.32 1.98 2 3 C-2.75 7.875 -2.75 7.875 -5 9 C-3.7508258 5.54074837 -2.32472205 2.85306797 0 0 Z " fill="#202837" transform="translate(95,78)"/>
<path d="M0 0 C-0.33 1.32 -0.66 2.64 -1 4 C-2.65 4.33 -4.3 4.66 -6 5 C-5.625 3.0625 -5.625 3.0625 -5 1 C-3 0 -3 0 0 0 Z " fill="#3B1029" transform="translate(78,60)"/>
<path d="M0 0 C0.66 0.33 1.32 0.66 2 1 C1.40138258 3.35171131 0.73075648 5.6859378 0 8 C-0.99 8.495 -0.99 8.495 -2 9 C-1.125 2.25 -1.125 2.25 0 0 Z " fill="#6F2147" transform="translate(84,69)"/>
<path d="M0 0 C0.99 0 1.98 0 3 0 C2.67 1.32 2.34 2.64 2 4 C1.34 4 0.68 4 0 4 C0 4.66 0 5.32 0 6 C-0.99 6.33 -1.98 6.66 -3 7 C-1.125 2.25 -1.125 2.25 0 0 Z " fill="#44152B" transform="translate(112,30)"/>
</svg>
